<?xml version="1.0" standalone="no"?>
<!DOCTYPE svg PUBLIC "-//W3C//DTD SVG 20010904//EN"
 "http://www.w3.org/TR/2001/REC-SVG-20010904/DTD/svg10.dtd">
<svg version="1.0" xmlns="http://www.w3.org/2000/svg"
 width="500.000000pt" height="500.000000pt" viewBox="0 0 500.000000 500.000000"
 preserveAspectRatio="xMidYMid meet">

<g transform="translate(0.000000,500.000000) scale(0.100000,-0.100000)"
fill="#000000" stroke="none">
<path d="M3645 2716 c-248 -50 -419 -186 -496 -396 -21 -58 -24 -82 -24 -215
0 -183 18 -253 96 -370 91 -136 206 -216 491 -344 368 -165 418 -206 418 -346
0 -61 -22 -115 -62 -152 -74 -69 -239 -100 -371 -69 -143 34 -221 93 -343 265
-5 6 -366 -204 -371 -216 -9 -22 84 -147 165 -225 44 -42 110 -93 148 -116
239 -139 585 -172 858 -81 117 39 195 87 277 170 123 124 177 281 165 483 -15
238 -129 414 -356 548 -71 42 -330 168 -346 168 -11 0 -207 101 -235 122 -38
28 -75 90 -84 140 -18 95 49 205 139 229 55 15 183 7 223 -14 37 -19 95 -74
139 -131 l30 -38 165 106 c90 59 169 112 176 119 16 17 -39 97 -128 186 -81
81 -191 140 -309 166 -103 23 -278 28 -365 11z"/>
<path d="M2250 1862 c0 -749 -2 -844 -16 -888 -37 -110 -104 -156 -228 -157
-119 0 -186 40 -262 155 -26 40 -49 75 -50 77 -3 3 -350 -204 -368 -219 -17
-16 59 -136 139 -215 91 -92 190 -149 321 -187 67 -19 102 -23 234 -23 132 0
167 4 235 23 178 52 304 151 376 297 78 160 73 95 77 1088 l3 887 -231 0 -230
0 0 -838z"/>
</g>
</svg>
